<?xml version="1.0" standalone="no"?>
<!DOCTYPE svg PUBLIC "-//W3C//DTD SVG 20010904//EN"
 "http://www.w3.org/TR/2001/REC-SVG-20010904/DTD/svg10.dtd">
<svg version="1.0" xmlns="http://www.w3.org/2000/svg"
 width="180.000000pt" height="180.000000pt" viewBox="0 0 180.000000 180.000000"
 preserveAspectRatio="xMidYMid meet">
<metadata>
Created by potrace 1.14, written by Peter Selinger 2001-2017
</metadata>
<g transform="translate(0.000000,180.000000) scale(0.100000,-0.100000)"
fill="#000000" stroke="none">
<path d="M50 1552 c-5 -2 -10 -30 -10 -63 l0 -59 59 0 60 0 0 -565 0 -565 -58
0 -58 0 -2 -53 -1 -52 453 0 452 0 0 180 0 180 -42 2 c-49 3 -45 15 -47 -132
l-1 -100 -196 -3 -195 -2 0 555 0 555 58 0 58 0 0 63 0 62 -260 0 c-143 0
-264 -1 -270 -3z"/>
<path d="M866 1548 c-7 -4 -12 -27 -11 -60 l1 -53 342 -3 342 -2 0 62 0 63
-331 0 c-182 0 -336 -3 -343 -7z"/>
<path d="M858 1318 c-4 -11 -3 -89 1 -108 1 -3 201 -5 446 -5 l445 0 0 63 0
62 -444 0 c-346 0 -445 -3 -448 -12z"/>
<path d="M857 1095 c-2 -5 -3 -32 -3 -60 l1 -50 343 -2 342 -2 0 62 0 63 -340
-1 c-221 0 -341 -3 -343 -10z"/>
<path d="M940 880 l-85 -5 0 -53 c0 -30 4 -56 9 -59 6 -4 728 -8 784 -4 8 1
12 20 12 61 l0 60 -37 0 c-281 4 -616 4 -683 0z"/>
</g>
</svg>
